<svg width="1280" height="640" xmlns="http://www.w3.org/2000/svg"><defs><style>#fish{animation:wiggle 3s ease-in-out infinite}@keyframes wiggle{0%,to{transform:translateY(0)}50%{transform:translateY(8%)}}@keyframes swim{0%{transform: translateX(-300px);animation-timing-function: ease-out}45%{transform: translateX(512px)}65%{transform:translateX(512px);animation-timing-function: cubic-bezier(0,.5,1,1)}to{transform:translateX(100%)}}</style><g id="fish"><path style="fill:#000" d="m0 257 85 112v126L0 607ZM432 0l313 313v238L432 864 119 495V369ZM779 347l85 85-85 85v-64l21-21-21-21Z"/><path style="fill:#fff" d="m173 369 172-203v532L173 495ZM432 64l128 128v480L432 800ZM615 247l100 100v170L615 617Z"/></g></defs><rect width="100%" height="100%" rx="20"/><circle cx="640" cy="320" r="150" fill="#fff"/><g style="animation:swim 30s infinite"><use href="#fish" transform="matrix(.3 0 0 .3 0 180)"/></g></svg>