<svg width="1280" height="640" xmlns="http://www.w3.org/2000/svg" xmlns:xlink="http://www.w3.org/1999/xlink"><defs><use id="b" xlink:href="#a" fill="#000" stroke="#000" stroke-width="5"/><use id="d" xlink:href="#a" opacity=".2"/><use id="c" xlink:href="#a" fill="none" stroke="#000" stroke-width="5" stroke-dasharray="13" stroke-linecap="round"/><path id="a" d="M25 0h50l25 43.3-25 43.3H25L0 43.3z"/></defs><rect fill="#fff" width="100%" height="100%" rx="20"/><path style="fill:none;stroke:#000;stroke-width:2px;stroke-linecap:round;stroke-dasharray:5" d="M200 40h25v20h-25z"/><path d="M259.964 41.644v2.496q-1.195-1.113-2.555-1.664-1.348-.55-2.87-.55-3 0-4.595 1.84-1.593 1.827-1.593 5.296 0 3.457 1.593 5.297 1.594 1.828 4.594 1.828 1.523 0 2.871-.55 1.36-.552 2.555-1.665v2.473q-1.242.844-2.637 1.265-1.383.422-2.93.422-3.972 0-6.257-2.425-2.286-2.438-2.286-6.645 0-4.219 2.286-6.644 2.285-2.438 6.257-2.438 1.57 0 2.954.422 1.394.41 2.613 1.242zM263.304 52.613v-7.945h2.156v7.863q0 1.863.726 2.8.727.926 2.18.926 1.746 0 2.754-1.113 1.02-1.113 1.02-3.035v-7.441h2.156v13.125h-2.156v-2.016q-.786 1.195-1.829 1.781-1.03.574-2.402.574-2.262 0-3.433-1.406-1.172-1.406-1.172-4.113zm5.425-8.262zM286.343 46.683q-.364-.21-.797-.305-.422-.105-.938-.105-1.828 0-2.812 1.195-.973 1.184-.973 3.41v6.915h-2.168V44.668h2.168v2.039q.68-1.196 1.77-1.77 1.09-.586 2.648-.586.223 0 .492.035.27.024.598.082zM295.788 46.683q-.363-.21-.797-.305-.422-.105-.937-.105-1.828 0-2.813 1.195-.972 1.184-.972 3.41v6.915H288.1V44.668h2.168v2.039q.68-1.196 1.77-1.77 1.089-.586 2.647-.586.223 0 .493.035.27.024.597.082zM308.749 50.69v1.056h-9.914q.14 2.226 1.336 3.398 1.207 1.16 3.351 1.16 1.243 0 2.403-.304 1.172-.305 2.32-.915v2.04q-1.16.492-2.379.75-1.219.257-2.472.257-3.141 0-4.98-1.828-1.83-1.828-1.83-4.945 0-3.223 1.735-5.11 1.746-1.898 4.7-1.898 2.648 0 4.183 1.711 1.547 1.7 1.547 4.629zm-2.156-.632q-.024-1.77-.996-2.824-.961-1.055-2.555-1.055-1.805 0-2.895 1.02-1.078 1.02-1.242 2.87zM323.198 49.87v7.923h-2.156V49.94q0-1.863-.727-2.79-.726-.925-2.18-.925-1.745 0-2.753 1.113-1.008 1.114-1.008 3.036v7.418h-2.168V44.668h2.168v2.039q.773-1.184 1.816-1.77 1.055-.586 2.426-.586 2.262 0 3.422 1.406 1.16 1.395 1.16 4.114zM329.632 40.94v3.728h4.441v1.675h-4.441v7.125q0 1.606.433 2.063.446.457 1.793.457h2.215v1.805h-2.215q-2.496 0-3.445-.926-.95-.938-.95-3.399v-7.125h-1.581v-1.675h1.582V40.94zM336.91 39.558h2.155v18.235h-2.156zM349.038 59.011q-.914 2.344-1.781 3.059-.867.715-2.32.715h-1.723V60.98h1.265q.891 0 1.383-.422t1.09-1.992l.387-.984-5.309-12.914h2.285l4.102 10.265 4.102-10.265h2.285zM365.41 39.558h2.155v18.235h-2.156zM383.304 50.69v1.056h-9.914q.14 2.226 1.336 3.398 1.207 1.16 3.351 1.16 1.242 0 2.402-.304 1.172-.305 2.32-.915v2.04q-1.16.492-2.378.75-1.219.257-2.473.257-3.14 0-4.98-1.828-1.828-1.828-1.828-4.945 0-3.223 1.734-5.11 1.746-1.898 4.7-1.898 2.648 0 4.183 1.711 1.547 1.7 1.547 4.629zm-2.157-.632q-.023-1.77-.996-2.824-.96-1.055-2.554-1.055-1.805 0-2.895 1.02-1.078 1.02-1.242 2.87zM392.808 51.195q-2.614 0-3.622.598-1.007.597-1.007 2.039 0 1.148.75 1.828.761.668 2.062.668 1.793 0 2.871-1.266 1.09-1.277 1.09-3.387v-.48zm4.3-.89v7.488h-2.156V55.8q-.738 1.196-1.84 1.77-1.101.562-2.695.562-2.016 0-3.211-1.125-1.184-1.136-1.184-3.035 0-2.215 1.477-3.34 1.488-1.125 4.43-1.125h3.023v-.21q0-1.489-.984-2.297-.973-.82-2.742-.82-1.125 0-2.192.269-1.066.27-2.05.808v-1.992q1.183-.457 2.296-.68 1.114-.234 2.168-.234 2.848 0 4.254 1.477 1.406 1.476 1.406 4.476zM409.155 46.683q-.363-.21-.797-.305-.422-.105-.937-.105-1.828 0-2.813 1.195-.972 1.184-.972 3.41v6.915h-2.168V44.668h2.168v2.039q.68-1.196 1.77-1.77 1.09-.586 2.648-.586.222 0 .492.035.27.024.598.082zM421.905 49.87v7.923h-2.156V49.94q0-1.863-.727-2.79-.726-.925-2.18-.925-1.745 0-2.753 1.113-1.008 1.114-1.008 3.036v7.418h-2.168V44.668h2.168v2.039q.773-1.184 1.816-1.77 1.055-.586 2.426-.586 2.262 0 3.422 1.406 1.16 1.395 1.16 4.114zM426.206 44.668h2.156v13.125h-2.156zm0-5.11h2.156v2.73h-2.156zM443.784 49.87v7.923h-2.156V49.94q0-1.863-.727-2.79-.726-.925-2.18-.925-1.745 0-2.753 1.113-1.008 1.114-1.008 3.036v7.418h-2.168V44.668h2.168v2.039q.773-1.184 1.816-1.77 1.055-.586 2.426-.586 2.262 0 3.422 1.406 1.16 1.395 1.16 4.114zM456.722 51.078q0-2.344-.973-3.633-.96-1.29-2.707-1.29-1.734 0-2.707 1.29-.961 1.289-.961 3.633 0 2.332.96 3.62.974 1.29 2.708 1.29 1.746 0 2.707-1.29.973-1.288.973-3.62zm2.156 5.086q0 3.351-1.488 4.98-1.489 1.64-4.559 1.64-1.137 0-2.145-.175-1.007-.164-1.957-.516v-2.097q.95.515 1.875.761.926.246 1.887.246 2.121 0 3.176-1.113 1.055-1.101 1.055-3.34v-1.066q-.668 1.16-1.711 1.734-1.043.575-2.496.575-2.414 0-3.891-1.84-1.477-1.84-1.477-4.875 0-3.047 1.477-4.887 1.477-1.84 3.89-1.84 1.454 0 2.497.574 1.043.575 1.71 1.735v-1.992h2.157zM510 40h25v20h-25zM555.75 39.642h3.528l4.465 11.906 4.488-11.906h3.527v17.496h-2.308V41.775l-4.512 12h-2.379l-4.512-12v15.363h-2.296zM581.825 58.357q-.914 2.344-1.781 3.058-.868.715-2.32.715H576v-1.804h1.265q.89 0 1.383-.422.492-.422 1.09-1.993l.387-.984-5.309-12.914h2.285l4.102 10.266 4.101-10.266h2.285zM600.329 40.286v3.727h4.441v1.676h-4.441v7.125q0 1.605.433 2.062.446.457 1.793.457h2.215v1.805h-2.215q-2.496 0-3.445-.926-.95-.937-.95-3.398v-7.125h-1.581v-1.676h1.582v-3.727zM618.833 50.036v1.055h-9.914q.14 2.227 1.336 3.399 1.207 1.16 3.351 1.16 1.242 0 2.402-.305 1.172-.305 2.32-.914v2.039q-1.16.492-2.378.75-1.219.258-2.473.258-3.14 0-4.98-1.828-1.828-1.828-1.828-4.946 0-3.222 1.734-5.109 1.746-1.898 4.7-1.898 2.648 0 4.183 1.71 1.547 1.7 1.547 4.63zm-2.157-.632q-.023-1.77-.996-2.825-.96-1.054-2.554-1.054-1.805 0-2.895 1.02-1.078 1.019-1.242 2.87zM631.817 44.517v2.016q-.914-.504-1.84-.75-.914-.258-1.851-.258-2.098 0-3.258 1.336-1.16 1.324-1.16 3.726 0 2.403 1.16 3.739 1.16 1.324 3.258 1.324.937 0 1.851-.246.926-.258 1.84-.762v1.992q-.902.422-1.875.633-.96.21-2.05.21-2.966 0-4.712-1.862-1.746-1.864-1.746-5.028 0-3.21 1.758-5.05 1.77-1.84 4.84-1.84.996 0 1.945.21.95.2 1.84.61zM646.477 49.216v7.922h-2.156v-7.852q0-1.863-.727-2.789-.726-.925-2.18-.925-1.745 0-2.753 1.113t-1.008 3.035v7.418h-2.168V38.904h2.168v7.148q.773-1.184 1.816-1.77 1.055-.585 2.426-.585 2.262 0 3.422 1.406 1.16 1.394 1.16 4.113zM666.774 44.4v2.039q-.914-.469-1.898-.703-.985-.235-2.04-.235-1.605 0-2.414.492-.796.493-.796 1.477 0 .75.574 1.184.574.422 2.308.808l.739.164q2.297.492 3.258 1.395.972.89.972 2.496 0 1.828-1.453 2.894-1.441 1.067-3.973 1.067-1.054 0-2.203-.211-1.136-.2-2.402-.61v-2.226q1.195.621 2.355.937 1.16.305 2.297.305 1.524 0 2.344-.515.82-.528.82-1.477 0-.879-.597-1.348-.586-.468-2.59-.902l-.75-.176q-2.004-.422-2.895-1.289-.89-.879-.89-2.402 0-1.852 1.312-2.86 1.313-1.007 3.727-1.007 1.195 0 2.25.175 1.054.176 1.945.528zM673.044 40.286v3.727h4.441v1.676h-4.441v7.125q0 1.605.433 2.062.445.457 1.793.457h2.215v1.805h-2.215q-2.496 0-3.445-.926-.95-.937-.95-3.398v-7.125h-1.581v-1.676h1.582v-3.727zM686.286 50.54q-2.614 0-3.621.598-1.008.598-1.008 2.04 0 1.148.75 1.827.762.668 2.062.668 1.793 0 2.871-1.265 1.09-1.278 1.09-3.387v-.48zm4.3-.89v7.488h-2.156v-1.992q-.738 1.195-1.84 1.77-1.101.562-2.695.562-2.015 0-3.21-1.125-1.184-1.137-1.184-3.035 0-2.215 1.476-3.34 1.488-1.125 4.43-1.125h3.023v-.211q0-1.488-.984-2.297-.973-.82-2.742-.82-1.125 0-2.192.27-1.066.269-2.05.808V44.61q1.183-.457 2.296-.68 1.114-.234 2.168-.234 2.848 0 4.254 1.476 1.407 1.477 1.407 4.477zM704.473 44.517v2.016q-.914-.504-1.84-.75-.914-.258-1.851-.258-2.098 0-3.258 1.336-1.16 1.324-1.16 3.726 0 2.403 1.16 3.739 1.16 1.324 3.258 1.324.937 0 1.851-.246.926-.258 1.84-.762v1.992q-.902.422-1.875.633-.96.21-2.05.21-2.965 0-4.711-1.862-1.747-1.864-1.747-5.028 0-3.21 1.758-5.05 1.77-1.84 4.84-1.84.996 0 1.945.21.95.2 1.84.61zM708.141 38.904h2.168v10.77l6.434-5.661h2.754l-6.961 6.14 7.254 6.985h-2.813l-6.668-6.41v6.41h-2.168z"/><g><path style="opacity:.2;fill:#000" d="M770 40h25v20h-25z"/><path d="M816.367 39.957h2.38v10.629q0 2.812 1.019 4.055 1.02 1.23 3.304 1.23 2.274 0 3.293-1.23 1.02-1.243 1.02-4.055V39.957h2.379V50.88q0 3.422-1.7 5.168-1.687 1.746-4.992 1.746-3.316 0-5.015-1.746-1.688-1.746-1.688-5.168zM842.477 44.715v2.039q-.915-.469-1.899-.703-.984-.235-2.039-.235-1.605 0-2.414.493-.797.492-.797 1.476 0 .75.574 1.184.575.422 2.309.808l.738.164q2.297.493 3.258 1.395.973.89.973 2.496 0 1.828-1.453 2.895-1.442 1.066-3.973 1.066-1.055 0-2.203-.21-1.137-.2-2.403-.61v-2.227q1.196.621 2.356.938 1.16.304 2.297.304 1.523 0 2.344-.515.82-.528.82-1.477 0-.879-.598-1.348-.586-.468-2.59-.902l-.75-.176q-2.004-.422-2.894-1.289-.89-.879-.89-2.402 0-1.852 1.312-2.86 1.312-1.007 3.726-1.007 1.196 0 2.25.176 1.055.175 1.946.527zM857.84 50.352v1.054h-9.914q.14 2.227 1.336 3.399 1.207 1.16 3.351 1.16 1.242 0 2.403-.305 1.172-.304 2.32-.914v2.04q-1.16.491-2.379.75-1.219.257-2.473.257-3.14 0-4.98-1.828-1.828-1.828-1.828-4.945 0-3.223 1.734-5.11 1.746-1.898 4.7-1.898 2.648 0 4.183 1.71 1.547 1.7 1.547 4.63zm-2.156-.633q-.024-1.77-.996-2.824-.961-1.055-2.555-1.055-1.805 0-2.895 1.02-1.078 1.019-1.242 2.87zM870.016 46.32V39.22h2.156v18.234h-2.156v-1.969q-.68 1.172-1.723 1.747-1.031.562-2.484.562-2.38 0-3.88-1.898-1.488-1.899-1.488-4.993 0-3.093 1.489-4.992 1.5-1.898 3.879-1.898 1.453 0 2.484.574 1.043.562 1.723 1.734zm-7.348 4.582q0 2.38.973 3.739.984 1.347 2.695 1.347 1.71 0 2.695-1.347.985-1.36.985-3.739 0-2.379-.985-3.726-.984-1.36-2.695-1.36-1.711 0-2.695 1.36-.973 1.347-.973 3.726zM890.887 39.219v1.793h-2.063q-1.16 0-1.617.469-.445.468-.445 1.687v1.16h3.55v1.676h-3.55v11.45h-2.168v-11.45h-2.063v-1.676h2.063v-.914q0-2.191 1.02-3.187 1.019-1.008 3.234-1.008zM897.777 45.84q-1.734 0-2.742 1.36-1.008 1.347-1.008 3.702 0 2.356.996 3.715 1.008 1.348 2.754 1.348 1.723 0 2.73-1.36 1.009-1.359 1.009-3.703 0-2.332-1.008-3.691-1.008-1.371-2.73-1.371zm0-1.828q2.813 0 4.418 1.828 1.606 1.828 1.606 5.062 0 3.223-1.606 5.063-1.605 1.828-4.418 1.828-2.824 0-4.43-1.828-1.593-1.84-1.593-5.063 0-3.234 1.594-5.062 1.605-1.828 4.43-1.828zM914.98 46.344q-.363-.211-.796-.305-.422-.105-.938-.105-1.828 0-2.812 1.195-.973 1.184-.973 3.41v6.914h-2.168V44.328h2.168v2.04q.68-1.196 1.77-1.77 1.09-.586 2.648-.586.223 0 .492.035.27.023.598.082zM926.957 55.484v6.961h-2.168V44.328h2.168v1.992q.68-1.172 1.711-1.734 1.043-.574 2.484-.574 2.391 0 3.88 1.898 1.5 1.899 1.5 4.992 0 3.094-1.5 4.993-1.489 1.898-3.88 1.898-1.441 0-2.484-.562-1.031-.575-1.711-1.747zm7.336-4.582q0-2.379-.984-3.726-.973-1.36-2.684-1.36-1.71 0-2.695 1.36-.973 1.347-.973 3.726 0 2.38.973 3.739.984 1.347 2.695 1.347 1.71 0 2.684-1.347.984-1.36.984-3.739zM945.191 45.84q-1.734 0-2.742 1.36-1.008 1.347-1.008 3.702 0 2.356.996 3.715 1.008 1.348 2.754 1.348 1.723 0 2.73-1.36 1.009-1.359 1.009-3.703 0-2.332-1.008-3.691-1.008-1.371-2.73-1.371zm0-1.828q2.813 0 4.418 1.828 1.606 1.828 1.606 5.062 0 3.223-1.606 5.063-1.605 1.828-4.418 1.828-2.824 0-4.43-1.828-1.593-1.84-1.593-5.063 0-3.234 1.594-5.062 1.605-1.828 4.43-1.828zM962.395 46.344q-.364-.211-.797-.305-.422-.105-.938-.105-1.828 0-2.812 1.195-.973 1.184-.973 3.41v6.914h-2.168V44.328h2.168v2.04q.68-1.196 1.77-1.77 1.09-.586 2.648-.586.223 0 .492.035.27.023.598.082zM966.79 40.602v3.726h4.44v1.676h-4.44v7.125q0 1.605.433 2.062.445.457 1.793.457h2.214v1.805h-2.214q-2.496 0-3.446-.926-.949-.937-.949-3.398v-7.125h-1.582v-1.676h1.582v-3.726zM980.71 39.219v1.793h-2.062q-1.16 0-1.617.469-.445.468-.445 1.687v1.16h3.55v1.676h-3.55v11.45h-2.168v-11.45h-2.063v-1.676h2.063v-.914q0-2.191 1.02-3.187 1.019-1.008 3.234-1.008zM987.602 45.84q-1.735 0-2.743 1.36-1.007 1.347-1.007 3.702 0 2.356.996 3.715 1.007 1.348 2.754 1.348 1.722 0 2.73-1.36 1.008-1.359 1.008-3.703 0-2.332-1.008-3.691-1.008-1.371-2.73-1.371zm0-1.828q2.812 0 4.418 1.828 1.605 1.828 1.605 5.062 0 3.223-1.605 5.063-1.606 1.828-4.418 1.828-2.825 0-4.43-1.828-1.594-1.84-1.594-5.063 0-3.234 1.594-5.062 1.605-1.828 4.43-1.828zM997.2 39.219h2.155v18.234H997.2zM1003.867 44.328h2.156v13.125h-2.156zm0-5.11h2.156v2.731h-2.156zM1015.621 45.84q-1.734 0-2.742 1.36-1.008 1.347-1.008 3.702 0 2.356.996 3.715 1.008 1.348 2.754 1.348 1.723 0 2.73-1.36 1.008-1.359 1.008-3.703 0-2.332-1.007-3.691-1.008-1.371-2.73-1.371zm0-1.828q2.813 0 4.418 1.828t1.605 5.062q0 3.223-1.605 5.063-1.605 1.828-4.418 1.828-2.824 0-4.43-1.828-1.593-1.84-1.593-5.063 0-3.234 1.593-5.062 1.606-1.828 4.43-1.828z"/></g><g transform="translate(568.2 216.4)"><use xlink:href="#b"/><image xlink:href="icons/kotlin_45.png" x="27" y="21"/></g><g transform="translate(568.2 323)"><use xlink:href="#b"/><image xlink:href="icons/java_45.png" x="27" y="10"/></g><g transform="translate(663.2 163.1)"><use xlink:href="#b"/><image xlink:href="icons/compose_45.png" x="27" y="18"/></g><g transform="translate(758.2 216.4)"><use href="#b"/><image href="icons/android_45.png" x="27" y="28"/></g><g transform="translate(853.2 269.7)"><use href="#b"/><image href="icons/studio_45.png" x="27" y="17"/></g><g transform="translate(473.2 269.7)"><use href="#b"/><image href="icons/intellij_45.png" x="26" y="22"/></g><g transform="translate(378.2 323)"><use href="#b"/><image href="icons/python_45.png" x="28" y="21"/></g><g transform="translate(378.2 216.4)"><use href="#c"/><image href="icons/cpp_45.png" x="27" y="18"/></g><g transform="translate(283.2 163.1)"><use href="#c"/><image href="icons/clion_45.png" x="26" y="20"/></g><g transform="translate(190.2 425.6)"><use href="#b"/><image href="icons/github_45.png" x="28" y="20"/></g><g transform="translate(190.2 319)"><use href="#b"/><image href="icons/git_45.png" x="26" y="22"/></g><g transform="translate(95.2 372.3)"><use href="#b"/><image href="icons/gitlab_45.png" x="27" y="23"/></g><g transform="translate(853.2 482.9)"><use href="#d"/><image href="icons/graph_45.png" x="26" y="18"/></g><g transform="translate(948.2 429.6)"><use href="#d"/><image href="icons/js_45.png" x="28" y="21"/></g><g transform="translate(1043.2 482.9)"><use href="#d"/><image href="icons/node_45.png" x="28" y="18"/></g><g transform="translate(1043.2 376.3)"><use href="#d"/><image href="icons/react_45.png" x="28" y="22"/></g><g transform="translate(1138.2 323)"><use href="#d"/><image href="icons/html_40.png" x="30" y="22"/></g><g transform="translate(1043.2 269.7)"><use href="#d"/><image href="icons/css_40.png" x="30" y="22"/></g></svg>